<svg xmlns="http://www.w3.org/2000/svg" xmlns:xlink="http://www.w3.org/1999/xlink" width="48" height="48" version="1.0"><defs><linearGradient x1="124" y1="518.86" gradientTransform="rotate(90 326.18 206.18)" x2="179" gradientUnits="userSpaceOnUse" y2="518.86" id="b"><stop offset="0" stop-color="#077ed6"/><stop offset="1" stop-color="#82c9ff"/></linearGradient><linearGradient x1="124" y1="518.86" gradientTransform="rotate(90 326.18 206.18)" x2="179" gradientUnits="userSpaceOnUse" y2="518.86" id="a"><stop offset="0" stop-color="#007ad4"/><stop offset="1" stop-color="#82c9ff"/></linearGradient><linearGradient xlink:href="#a" id="c" x1="12.452" y1="18.234" x2="38.692" y2="18.234" gradientUnits="userSpaceOnUse" gradientTransform="translate(5.113 .943) scale(.87438)"/><linearGradient xlink:href="#b" id="d" gradientUnits="userSpaceOnUse" x1="4.794" y1="24.331" x2="43.634" y2="24.331" gradientTransform="translate(.878 1.006)"/></defs><path d="M11.986 6.367l-3.939.7 3.321 18.707 1.62-2.319 2.319 1.62z" fill="#ff0083" fill-rule="evenodd"/><g stroke="#232222" stroke-width="2" stroke-linecap="square" stroke-opacity="0"><path d="M23.085 4.909l-4.35.712c-1.191 2.47-2.31 6.04-2.608 9.21-.46 4.896.345 8.586 2.436 11.078 2.092 2.493 5.152 3.405 9.172 2.749 4.225-.691 7.667-2.643 10.323-5.872.406-.494.532-.64.887-1.176l-.881-5.39c-.594 2.18-1.974 4.486-3.017 6.083-1.847 2.827-4.216 4.472-7.12 4.947-2.76.451-4.816-.486-6.165-2.817-1.335-2.346-1.788-5.783-1.36-10.32.35-3.724 1.393-6.629 2.683-9.204z" fill="url(#c)" stroke="none"/><path d="M41.796 41.177l-28.881 4.724a1 1 0 0 1-1.148-.825L5.807 8.634a1 1 0 0 1 .825-1.148l28.881-4.724a1 1 0 0 1 1.148.825l5.96 36.441a1 1 0 0 1-.825 1.149z" opacity=".98" fill="none" stroke="url(#d)" stroke-opacity="1"/><g stroke="none" stroke-width="2.34"><path d="M44.659 41.415a.767.767 0 0 1-.814-.41c-3.795-7.528-20.57-4.485-20.728-4.458L7.238 39.261a.766.766 0 1 1-.258-1.511l15.867-2.712c.73-.142 18.06-3.265 22.367 5.276a.766.766 0 0 1-.555 1.101z" fill="#231815"/><path d="M10.455 47.36a.767.767 0 0 1-.89-.844c1.105-9.577 18.657-12.408 19.401-12.523l15.793-2.7a.765.765 0 0 1 .885.627.765.765 0 0 1-.627.885l-15.805 2.7c-.175.035-17.152 2.765-18.125 11.186a.767.767 0 0 1-.632.668z" fill="#231815"/><path d="M28.502 34.474c-.989-.692-1.947-.962-2.845-.765-1.436.294-2.267 1.61-2.275 1.623l-.59-.358c.04-.065 1-1.585 2.728-1.938 1.088-.225 2.234.07 3.386.876z" fill="#232222"/><path d="M11.375 33.888a3.453 3.453 0 0 0-2.82 3.981l.13.756a5.756 5.756 0 0 0 6.635 4.699l3.022-.517a5.756 5.756 0 0 0 4.698-6.635l-.129-.755a3.453 3.453 0 0 0-3.98-2.82zm20.4-3.486a3.453 3.453 0 0 0-2.819 3.981l.13.756a5.756 5.756 0 0 0 6.634 4.699l3.022-.517a5.756 5.756 0 0 0 4.7-6.635l-.13-.755a3.453 3.453 0 0 0-3.98-2.82z" opacity=".3" fill="#2ea7e0"/><path d="M18.471 43.563l-3.022.516a6.523 6.523 0 0 1-7.52-5.325l-.13-.756a4.221 4.221 0 0 1 3.447-4.866l7.555-1.291a4.222 4.222 0 0 1 4.867 3.446l.129.755a6.524 6.524 0 0 1-5.326 7.52zm-7.096-9.675a3.453 3.453 0 0 0-2.82 3.981l.13.756a5.756 5.756 0 0 0 6.635 4.699l3.022-.517a5.756 5.756 0 0 0 4.698-6.635l-.129-.755a3.453 3.453 0 0 0-3.98-2.82zm27.497 6.189l-3.022.516a6.523 6.523 0 0 1-7.52-5.325l-.129-.756a4.222 4.222 0 0 1 3.446-4.866l7.556-1.291a4.222 4.222 0 0 1 4.866 3.446l.13.755a6.525 6.525 0 0 1-5.327 7.52zm-7.097-9.675a3.453 3.453 0 0 0-2.819 3.981l.13.756a5.756 5.756 0 0 0 6.634 4.699l3.022-.517a5.756 5.756 0 0 0 4.7-6.635l-.13-.755a3.453 3.453 0 0 0-3.98-2.82z" fill="#232222"/></g></g></svg>