/* XPM */
static char *maximize_xpm[] = {
"26 26 36 1",
" 	c None",
"B	c #77E011",
"C	c #1A1E24",
"D	c #233122",
"E	c #385B1E",
"F	c #395F1E",
"G	c #233023",
"H	c #72D412",
"I	c #77E011",
"J	c #71D312",
"K	c #36591E",
"L	c #4C871A",
"M	c #375B1E",
"N	c #243422",
"O	c #46791B",
"P	c #2D4720",
"Q	c #304D1F",
"R	c #44761C",
"S	c #1F2823",
"T	c #2D4520",
"U	c #64B715",
"V	c #1B2124",
"W	c #559A18",
"X	c #61B315",
"Y	c #559818",
"Z	c #579E17",
"a	c #2B4220",
"b	c #559918",
"c	c #1C2223",
"d	c #2B4021",
"e	c #569B18",
"f	c #33521F",
"g	c #253522",
"h	c #222E22",
"i	c #6AC414",
"j	c #232F23",
"BBBBBBBBBBBBBBBBBBBBBBBBBB",
"CCCCCCCCCCCCCCCCCCCCCCCCCC",
"CCCCCCCCCCCCCCCCCCCCCCCCCC",
"CCCCCCCCCCCCCCCCCCCCCCCCCC",
"CCCCCCCCCCCCCCCCCCCCCCCCCC",
"CCCCCCDEFFFFFFFFFFEGCCCCCC",
"CCCCCDHIIIIIIIIIIIIJGCCCCC",
"CCCCCKILFFFFFFFFFFLIKCCCCC",
"CCCCCMIMCCCCCCCCCCMIMCCCCC",
"CCCCCMIMCCNOOOOOPCMIMCCCCC",
"CCCCCMIMCCQIIIIIRCMIMCCCCC",
"CCCCCMIMCCSTPUIIRCMIMCCCCC",
"CCCCCMIMCCCVWIXIRCMIMCCCCC",
"CCCCCCCCCCVYIZaIRCMIMCCCCC",
"CCCCCCCCCVbIZcdIRCMIMCCCCC",
"CCCCCCCCVeIWVCSfgCMIMCCCCC",
"CCCCCCCVbIZcCCCCCCMIMCCCCC",
"CCCCCCVbIZcCCCCCCCMIMCCCCC",
"CCCCCVeIeVCCCFFFFFLIKCCCCC",
"CCCCChieVCCCCIIIIIIJjCCCCC",
"CCCCCChVCCCCCFFFFFEjCCCCCC",
"CCCCCCCCCCCCCCCCCCCCCCCCCC",
"CCCCCCCCCCCCCCCCCCCCCCCCCC",
"CCCCCCCCCCCCCCCCCCCCCCCCCC",
"CCCCCCCCCCCCCCCCCCCCCCCCCC",
"CCCCCCCCCCCCCCCCCCCCCCCCCC"
};
