/* XPM */
static char *maximize_xpm[] = {
"26 26 14 1",
" 	c None",
"1	c #77E011",
"2	c #1A1E24",
"3	c #233122",
"4	c #385B1E",
"5	c #395F1E",
"6	c #233023",
"7	c #72D412",
"8	c #77E011",
"9	c #71D312",
"A	c #36591E",
"B	c #4C871A",
"C	c #375B1E",
"D	c #232F23",
"11111111111111111111111111",
"22222222222222222222222222",
"22222222222222222222222222",
"22222222222222222222222222",
"22222222222222222222222222",
"22222234555555555546222222",
"22222378888888888889622222",
"22222A8B5555555555B8A22222",
"22222C8C2222222222C8C22222",
"22222C8C2222222222C8C22222",
"22222C8C2222222222C8C22222",
"22222C8C2222222222C8C22222",
"22222C8C2222222222C8C22222",
"222222222222222222C8C22222",
"222222222222222222C8C22222",
"222222222222222222C8C22222",
"222222222222222222C8C22222",
"222222222222222222C8C22222",
"222222222222255555B8A22222",
"22222222222228888889D22222",
"2222222222222555554D222222",
"22222222222222222222222222",
"22222222222222222222222222",
"22222222222222222222222222",
"22222222222222222222222222",
"22222222222222222222222222"
};
