/* XPM */
static char *shade_xpm[] = {
"26 26 5 1",
" 	c None",
"1	c #77E011",
"2	c #1A1E24",
"3	c #5DAB16",
"4	c #64B915",
"11111111111111111111111111",
"22222222222222222222222222",
"22222222222222222222222222",
"22222222222222222222222222",
"22222222222222222222222222",
"22222222222222222222222222",
"22222222222222222222222222",
"22222222222222222222222222",
"22222222222222222222222222",
"22222222222222222222222222",
"22222222222222222222222222",
"22222222222222222222222222",
"22222234444444444443222222",
"22222234444444444443222222",
"22222222222222222222222222",
"22222222222222222222222222",
"22222222222222222222222222",
"22222222222222222222222222",
"22222222222222222222222222",
"22222222222222222222222222",
"22222222222222222222222222",
"22222222222222222222222222",
"22222222222222222222222222",
"22222222222222222222222222",
"22222222222222222222222222",
"22222222222222222222222222"
};
