/* XPM */
static char * menu_pressed_xpm[] = {
"17 24 58 1",
" 	c None",
".	c #030303",
"+	c #B0B0B0",
"@	c #565656",
"#	c #959393",
"$	c #0E0E0E",
"%	c #000000",
"&	c #04358B",
"*	c #022D7C",
"=	c #043F9D",
"-	c #021E49",
";	c #021E4C",
">	c #075BC1",
",	c #053065",
"'	c #063369",
")	c #0E79CD",
"!	c #0A437E",
"~	c #0B4783",
"{	c #1288D4",
"]	c #0D4D89",
"^	c #6EBCDA",
"/	c #0E528E",
"(	c #1493D9",
"_	c #0F5391",
":	c #AEE0F4",
"<	c #115996",
"[	c #115A97",
"}	c #169DDC",
"|	c #105898",
"1	c #135F9E",
"2	c #DEFAFF",
"3	c #545454",
"4	c #022185",
"5	c #011343",
"6	c #011347",
"7	c #2889C2",
"8	c #022491",
"9	c #011549",
"0	c #01154E",
"a	c #329CD6",
"b	c #022BA5",
"c	c #011A53",
"d	c #011A59",
"e	c #41B7F5",
"f	c #0235BE",
"g	c #021E60",
"h	c #021E66",
"i	c #021E67",
"j	c #0441CC",
"k	c #032774",
"l	c #03277B",
"m	c #03287C",
"n	c #0871F8",
"o	c #087BFF",
"p	c #050505",
"q	c #0A0A0A",
"r	c #040404",
"s	c #7C7C7C",
".................",
"+++++++++++++++++",
"@@@@@@@@@@@@@@@@@",
"#################",
"#$%%%%%%%%%%%%%$#",
"#%&***********&%#",
"#%=-;;;;;;;;;-=%#",
"#%>,''''''''',>%#",
"#%)!~~~~~~~~~!)%#",
"#%{]^^/////^^]{%#",
"#%(_:::<<[:::_(%#",
"#%}|122212221|}%#",
"3%4566777776654%3",
"3%89000aaa00098%3",
"3%bcddddeddddcb%3",
"3%fghhhhhihhhgf%3",
"3%jklllllmlllkj%3",
"3%nnooooooooonn%3",
"3p%%%%%%%%%%%%%p3",
"33333333333333333",
"qqqqqqqqqqqqqqqqq",
"rrrrrrrrrrrrrrrrr",
"sssssssssssssssss",
"................."};
