/* XPM */
static char * menu_active_xpm[] = {
"17 24 40 1",
" 	c None",
".	c #030303",
"+	c #B0B0B0",
"@	c #565656",
"#	c #959393",
"$	c #0E0E0E",
"%	c #000000",
"&	c #1FA8E2",
"*	c #1EA6E0",
"=	c #1968A5",
"-	c #1CA5DF",
";	c #1866A3",
">	c #1AA2DE",
",	c #1664A0",
"'	c #199FDC",
")	c #16629F",
"!	c #FFFFFF",
"~	c #1AA1DD",
"{	c #1664A1",
"]	c #1CA7E2",
"^	c #1869A9",
"/	c #186AAA",
"(	c #545454",
"_	c #0446C2",
":	c #032C6F",
"<	c #044FC9",
"[	c #04317A",
"}	c #055DD3",
"|	c #053A8A",
"1	c #0770E1",
"2	c #0645A1",
"3	c #0646A2",
"4	c #0B8FF7",
"5	c #0858C6",
"6	c #0959C7",
"7	c #11B8FF",
"8	c #050505",
"9	c #0A0A0A",
"0	c #040404",
"a	c #7C7C7C",
".................",
"+++++++++++++++++",
"@@@@@@@@@@@@@@@@@",
"#################",
"#$%%%%%%%%%%%%%$#",
"#%&&&&&&&&&&&&&%#",
"#%*===========*%#",
"#%-;;;;;;;;;;;-%#",
"#%>,,,,,,,,,,,>%#",
"#%')!!)))))!!)'%#",
"#%~{!!!{{{!!!{~%#",
"#%]^^!!!/!!!^^]%#",
"(%_:::!!!!!:::_%(",
"(%<[[[[!!![[[[<%(",
"(%}|||||!|||||}%(",
"(%1222223222221%(",
"(%4555556555554%(",
"(%7777777777777%(",
"(8%%%%%%%%%%%%%8(",
"(((((((((((((((((",
"99999999999999999",
"00000000000000000",
"aaaaaaaaaaaaaaaaa",
"................."};
