/* XPM */
static char * menu_inactive_xpm[] = {
"17 24 28 1",
" 	c #030303",
".	c #B0B0B0",
"+	c #565656",
"@	c #959393",
"#	c #0E0E0E",
"$	c #000000",
"%	c #767676",
"&	c #717171",
"*	c #4C4C4C",
"=	c #6E6E6E",
"-	c #494949",
";	c #6A6A6A",
">	c #474747",
",	c #666666",
"'	c #444444",
")	c #FFFFFF",
"!	c #626262",
"~	c #424242",
"{	c #606060",
"]	c #404040",
"^	c #545454",
"/	c #191919",
"(	c #111111",
"_	c #181818",
":	c #101010",
"<	c #050505",
"[	c #0A0A0A",
"}	c #040404",
"                 ",
".................",
"+++++++++++++++++",
"@@@@@@@@@@@@@@@@@",
"@#$$$$$$$$$$$$$#@",
"@$%%%%%%%%%%%%%$@",
"@$&***********&$@",
"@$=-----------=$@",
"@$;>>>>>>>>>>>;$@",
"@$,'))'''''))',$@",
"@$!~)))~~~)))~!$@",
"@${]])))])))]]{$@",
"^$/((()))))(((/$^",
"^$_::::)))::::_$^",
"^$_:::::):::::_$^",
"^$_:::::::::::_$^",
"^$_:::::::::::_$^",
"^$_____________$^",
"^<$$$$$$$$$$$$$<^",
"^^^^^^^^^^^^^^^^^",
"[[[[[[[[[[[[[[[[[",
"}}}}}}}}}}}}}}}}}",
"~~~~~~~~~~~~~~~~~",
"                 "};
